%TF.GenerationSoftware,KiCad,Pcbnew,(6.0.5-0)*%
%TF.CreationDate,2022-07-24T21:09:41-05:00*%
%TF.ProjectId,hps_clock,6870735f-636c-46f6-936b-2e6b69636164,rev?*%
%TF.SameCoordinates,PX4c5bb48PY8abc9a0*%
%TF.FileFunction,Paste,Top*%
%TF.FilePolarity,Positive*%
%FSLAX46Y46*%
G04 Gerber Fmt 4.6, Leading zero omitted, Abs format (unit mm)*
G04 Created by KiCad (PCBNEW (6.0.5-0)) date 2022-07-24 21:09:41*
%MOMM*%
%LPD*%
G01*
G04 APERTURE LIST*
G04 Aperture macros list*
%AMRoundRect*
0 Rectangle with rounded corners*
0 $1 Rounding radius*
0 $2 $3 $4 $5 $6 $7 $8 $9 X,Y pos of 4 corners*
0 Add a 4 corners polygon primitive as box body*
4,1,4,$2,$3,$4,$5,$6,$7,$8,$9,$2,$3,0*
0 Add four circle primitives for the rounded corners*
1,1,$1+$1,$2,$3*
1,1,$1+$1,$4,$5*
1,1,$1+$1,$6,$7*
1,1,$1+$1,$8,$9*
0 Add four rect primitives between the rounded corners*
20,1,$1+$1,$2,$3,$4,$5,0*
20,1,$1+$1,$4,$5,$6,$7,0*
20,1,$1+$1,$6,$7,$8,$9,0*
20,1,$1+$1,$8,$9,$2,$3,0*%
G04 Aperture macros list end*
%ADD10R,1.400000X1.150000*%
%ADD11R,1.150000X1.400000*%
%ADD12R,4.500000X2.000000*%
%ADD13R,1.800000X1.000000*%
%ADD14R,1.600000X1.400000*%
%ADD15RoundRect,0.243750X0.456250X-0.243750X0.456250X0.243750X-0.456250X0.243750X-0.456250X-0.243750X0*%
%ADD16R,3.050000X2.750000*%
%ADD17R,2.200000X1.200000*%
G04 APERTURE END LIST*
D10*
%TO.C,C5*%
X100221800Y76604800D03*
X100221800Y78304800D03*
%TD*%
D11*
%TO.C,R6*%
X51772200Y17739400D03*
X53472200Y17739400D03*
%TD*%
D10*
%TO.C,R9*%
X82518000Y82687200D03*
X82518000Y80987200D03*
%TD*%
D11*
%TO.C,C8*%
X16896200Y49362400D03*
X15196200Y49362400D03*
%TD*%
%TO.C,C2*%
X125066600Y27645400D03*
X123366600Y27645400D03*
%TD*%
%TO.C,R7*%
X67291600Y17790200D03*
X68991600Y17790200D03*
%TD*%
D12*
%TO.C,Y2*%
X97445000Y56601400D03*
X105945000Y56601400D03*
%TD*%
D13*
%TO.C,Y1*%
X44545000Y80152600D03*
X44545000Y77652600D03*
%TD*%
D10*
%TO.C,R10*%
X80003400Y79143000D03*
X80003400Y77443000D03*
%TD*%
D11*
%TO.C,R4*%
X124848000Y66990000D03*
X126548000Y66990000D03*
%TD*%
%TO.C,R8*%
X82506200Y17815600D03*
X84206200Y17815600D03*
%TD*%
%TO.C,R5*%
X124873400Y69403000D03*
X126573400Y69403000D03*
%TD*%
D14*
%TO.C,SW3*%
X78999600Y22427800D03*
X70999600Y22427800D03*
X78999600Y17927800D03*
X70999600Y17927800D03*
%TD*%
%TO.C,SW2*%
X63759600Y22427800D03*
X55759600Y22427800D03*
X63759600Y17927800D03*
X55759600Y17927800D03*
%TD*%
D11*
%TO.C,R12*%
X15196200Y51902400D03*
X16896200Y51902400D03*
%TD*%
%TO.C,C6*%
X95688800Y51242000D03*
X97388800Y51242000D03*
%TD*%
D10*
%TO.C,C4*%
X97808800Y76604800D03*
X97808800Y78304800D03*
%TD*%
%TO.C,R3*%
X94837000Y81608600D03*
X94837000Y83308600D03*
%TD*%
D11*
%TO.C,C9*%
X13086200Y49362400D03*
X11386200Y49362400D03*
%TD*%
D15*
%TO.C,D1*%
X102482400Y78396900D03*
X102482400Y80271900D03*
%TD*%
D14*
%TO.C,SW4*%
X94239600Y22427800D03*
X86239600Y22427800D03*
X94239600Y17927800D03*
X86239600Y17927800D03*
%TD*%
D11*
%TO.C,C1*%
X124924200Y64424600D03*
X126624200Y64424600D03*
%TD*%
D16*
%TO.C,U1*%
X122724800Y32724400D03*
X122724800Y35774400D03*
X119374800Y32724400D03*
X119374800Y35774400D03*
D17*
X127349800Y31969400D03*
X127349800Y36529400D03*
%TD*%
D10*
%TO.C,R1*%
X102482400Y81888000D03*
X102482400Y83588000D03*
%TD*%
%TO.C,R11*%
X79876400Y57300800D03*
X79876400Y59000800D03*
%TD*%
%TO.C,C3*%
X127366200Y40093200D03*
X127366200Y41793200D03*
%TD*%
D11*
%TO.C,C7*%
X105848800Y51242000D03*
X107548800Y51242000D03*
%TD*%
D14*
%TO.C,SW1*%
X120808000Y77012400D03*
X112808000Y77012400D03*
X120808000Y72512400D03*
X112808000Y72512400D03*
%TD*%
M02*
