%TF.GenerationSoftware,KiCad,Pcbnew,(6.0.5-0)*%
%TF.CreationDate,2022-07-24T21:09:41-05:00*%
%TF.ProjectId,hps_clock,6870735f-636c-46f6-936b-2e6b69636164,rev?*%
%TF.SameCoordinates,PX4c5bb48PY8abc9a0*%
%TF.FileFunction,Legend,Top*%
%TF.FilePolarity,Positive*%
%FSLAX46Y46*%
G04 Gerber Fmt 4.6, Leading zero omitted, Abs format (unit mm)*
G04 Created by KiCad (PCBNEW (6.0.5-0)) date 2022-07-24 21:09:41*
%MOMM*%
%LPD*%
G01*
G04 APERTURE LIST*
G04 Aperture macros list*
%AMRoundRect*
0 Rectangle with rounded corners*
0 $1 Rounding radius*
0 $2 $3 $4 $5 $6 $7 $8 $9 X,Y pos of 4 corners*
0 Add a 4 corners polygon primitive as box body*
4,1,4,$2,$3,$4,$5,$6,$7,$8,$9,$2,$3,0*
0 Add four circle primitives for the rounded corners*
1,1,$1+$1,$2,$3*
1,1,$1+$1,$4,$5*
1,1,$1+$1,$6,$7*
1,1,$1+$1,$8,$9*
0 Add four rect primitives between the rounded corners*
20,1,$1+$1,$2,$3,$4,$5,0*
20,1,$1+$1,$4,$5,$6,$7,0*
20,1,$1+$1,$6,$7,$8,$9,0*
20,1,$1+$1,$8,$9,$2,$3,0*%
G04 Aperture macros list end*
%ADD10C,0.150000*%
%ADD11C,0.120000*%
%ADD12C,0.250000*%
%ADD13C,3.200000*%
%ADD14R,1.400000X1.150000*%
%ADD15C,2.000000*%
%ADD16R,1.150000X1.400000*%
%ADD17R,4.500000X2.000000*%
%ADD18O,1.700000X1.700000*%
%ADD19R,1.700000X1.700000*%
%ADD20R,1.800000X1.000000*%
%ADD21R,1.600000X1.600000*%
%ADD22O,1.600000X1.600000*%
%ADD23R,1.600000X1.400000*%
%ADD24R,1.400000X1.400000*%
%ADD25C,1.400000*%
%ADD26RoundRect,0.243750X0.456250X-0.243750X0.456250X0.243750X-0.456250X0.243750X-0.456250X-0.243750X0*%
%ADD27R,2.200000X1.200000*%
%ADD28R,6.400000X5.800000*%
%ADD29C,1.600000*%
%ADD30R,3.000000X3.000000*%
%ADD31C,3.000000*%
%ADD32RoundRect,0.500000X1.750000X0.500000X-1.750000X0.500000X-1.750000X-0.500000X1.750000X-0.500000X0*%
%ADD33RoundRect,0.500000X-0.500000X1.500000X-0.500000X-1.500000X0.500000X-1.500000X0.500000X1.500000X0*%
G04 APERTURE END LIST*
D10*
X119219980Y4485420D02*
X119219980Y5485420D01*
X119219980Y5104467D02*
X119315219Y5152086D01*
X119505695Y5152086D01*
X119600933Y5104467D01*
X119648552Y5056848D01*
X119696171Y4961610D01*
X119696171Y4675896D01*
X119648552Y4580658D01*
X119600933Y4533039D01*
X119505695Y4485420D01*
X119315219Y4485420D01*
X119219980Y4533039D01*
X120124742Y4485420D02*
X120124742Y5152086D01*
X120124742Y5485420D02*
X120077123Y5437800D01*
X120124742Y5390181D01*
X120172361Y5437800D01*
X120124742Y5485420D01*
X120124742Y5390181D01*
X120600933Y5152086D02*
X120600933Y4485420D01*
X120600933Y5056848D02*
X120648552Y5104467D01*
X120743790Y5152086D01*
X120886647Y5152086D01*
X120981885Y5104467D01*
X121029504Y5009229D01*
X121029504Y4485420D01*
X121934266Y5152086D02*
X121934266Y4342562D01*
X121886647Y4247324D01*
X121839028Y4199705D01*
X121743790Y4152086D01*
X121600933Y4152086D01*
X121505695Y4199705D01*
X121934266Y4533039D02*
X121839028Y4485420D01*
X121648552Y4485420D01*
X121553314Y4533039D01*
X121505695Y4580658D01*
X121458076Y4675896D01*
X121458076Y4961610D01*
X121505695Y5056848D01*
X121553314Y5104467D01*
X121648552Y5152086D01*
X121839028Y5152086D01*
X121934266Y5104467D01*
X122553314Y4485420D02*
X122458076Y4533039D01*
X122410457Y4628277D01*
X122410457Y5485420D01*
X123315219Y4533039D02*
X123219980Y4485420D01*
X123029504Y4485420D01*
X122934266Y4533039D01*
X122886647Y4628277D01*
X122886647Y5009229D01*
X122934266Y5104467D01*
X123029504Y5152086D01*
X123219980Y5152086D01*
X123315219Y5104467D01*
X123362838Y5009229D01*
X123362838Y4913991D01*
X122886647Y4818753D01*
X124553314Y4485420D02*
X124553314Y5485420D01*
X124553314Y5104467D02*
X124648552Y5152086D01*
X124839028Y5152086D01*
X124934266Y5104467D01*
X124981885Y5056848D01*
X125029504Y4961610D01*
X125029504Y4675896D01*
X124981885Y4580658D01*
X124934266Y4533039D01*
X124839028Y4485420D01*
X124648552Y4485420D01*
X124553314Y4533039D01*
X125600933Y4485420D02*
X125505695Y4533039D01*
X125458076Y4580658D01*
X125410457Y4675896D01*
X125410457Y4961610D01*
X125458076Y5056848D01*
X125505695Y5104467D01*
X125600933Y5152086D01*
X125743790Y5152086D01*
X125839028Y5104467D01*
X125886647Y5056848D01*
X125934266Y4961610D01*
X125934266Y4675896D01*
X125886647Y4580658D01*
X125839028Y4533039D01*
X125743790Y4485420D01*
X125600933Y4485420D01*
X126791409Y4485420D02*
X126791409Y5009229D01*
X126743790Y5104467D01*
X126648552Y5152086D01*
X126458076Y5152086D01*
X126362838Y5104467D01*
X126791409Y4533039D02*
X126696171Y4485420D01*
X126458076Y4485420D01*
X126362838Y4533039D01*
X126315219Y4628277D01*
X126315219Y4723515D01*
X126362838Y4818753D01*
X126458076Y4866372D01*
X126696171Y4866372D01*
X126791409Y4913991D01*
X127267600Y4485420D02*
X127267600Y5152086D01*
X127267600Y4961610D02*
X127315219Y5056848D01*
X127362838Y5104467D01*
X127458076Y5152086D01*
X127553314Y5152086D01*
X128315219Y4485420D02*
X128315219Y5485420D01*
X128315219Y4533039D02*
X128219980Y4485420D01*
X128029504Y4485420D01*
X127934266Y4533039D01*
X127886647Y4580658D01*
X127839028Y4675896D01*
X127839028Y4961610D01*
X127886647Y5056848D01*
X127934266Y5104467D01*
X128029504Y5152086D01*
X128219980Y5152086D01*
X128315219Y5104467D01*
%TO.C,H4*%
X134207095Y10886220D02*
X134207095Y11886220D01*
X134207095Y11410029D02*
X134778523Y11410029D01*
X134778523Y10886220D02*
X134778523Y11886220D01*
X135683285Y11552886D02*
X135683285Y10886220D01*
X135445190Y11933839D02*
X135207095Y11219553D01*
X135826142Y11219553D01*
%TO.C,C5*%
X102087133Y76183258D02*
X102039514Y76135639D01*
X101896657Y76088020D01*
X101801419Y76088020D01*
X101658561Y76135639D01*
X101563323Y76230877D01*
X101515704Y76326115D01*
X101468085Y76516591D01*
X101468085Y76659448D01*
X101515704Y76849924D01*
X101563323Y76945162D01*
X101658561Y77040400D01*
X101801419Y77088020D01*
X101896657Y77088020D01*
X102039514Y77040400D01*
X102087133Y76992781D01*
X102991895Y77088020D02*
X102515704Y77088020D01*
X102468085Y76611829D01*
X102515704Y76659448D01*
X102610942Y76707067D01*
X102849038Y76707067D01*
X102944276Y76659448D01*
X102991895Y76611829D01*
X103039514Y76516591D01*
X103039514Y76278496D01*
X102991895Y76183258D01*
X102944276Y76135639D01*
X102849038Y76088020D01*
X102610942Y76088020D01*
X102515704Y76135639D01*
X102468085Y76183258D01*
%TO.C,TP4*%
X29109895Y67258220D02*
X29681323Y67258220D01*
X29395609Y66258220D02*
X29395609Y67258220D01*
X30014657Y66258220D02*
X30014657Y67258220D01*
X30395609Y67258220D01*
X30490847Y67210600D01*
X30538466Y67162981D01*
X30586085Y67067743D01*
X30586085Y66924886D01*
X30538466Y66829648D01*
X30490847Y66782029D01*
X30395609Y66734410D01*
X30014657Y66734410D01*
X31443228Y66924886D02*
X31443228Y66258220D01*
X31205133Y67305839D02*
X30967038Y66591553D01*
X31586085Y66591553D01*
%TO.C,R6*%
X52455533Y18937020D02*
X52122200Y19413210D01*
X51884104Y18937020D02*
X51884104Y19937020D01*
X52265057Y19937020D01*
X52360295Y19889400D01*
X52407914Y19841781D01*
X52455533Y19746543D01*
X52455533Y19603686D01*
X52407914Y19508448D01*
X52360295Y19460829D01*
X52265057Y19413210D01*
X51884104Y19413210D01*
X53312676Y19937020D02*
X53122200Y19937020D01*
X53026961Y19889400D01*
X52979342Y19841781D01*
X52884104Y19698924D01*
X52836485Y19508448D01*
X52836485Y19127496D01*
X52884104Y19032258D01*
X52931723Y18984639D01*
X53026961Y18937020D01*
X53217438Y18937020D01*
X53312676Y18984639D01*
X53360295Y19032258D01*
X53407914Y19127496D01*
X53407914Y19365591D01*
X53360295Y19460829D01*
X53312676Y19508448D01*
X53217438Y19556067D01*
X53026961Y19556067D01*
X52931723Y19508448D01*
X52884104Y19460829D01*
X52836485Y19365591D01*
%TO.C,R9*%
X84620380Y81670534D02*
X84144190Y81337200D01*
X84620380Y81099105D02*
X83620380Y81099105D01*
X83620380Y81480058D01*
X83668000Y81575296D01*
X83715619Y81622915D01*
X83810857Y81670534D01*
X83953714Y81670534D01*
X84048952Y81622915D01*
X84096571Y81575296D01*
X84144190Y81480058D01*
X84144190Y81099105D01*
X84620380Y82146724D02*
X84620380Y82337200D01*
X84572761Y82432439D01*
X84525142Y82480058D01*
X84382285Y82575296D01*
X84191809Y82622915D01*
X83810857Y82622915D01*
X83715619Y82575296D01*
X83668000Y82527677D01*
X83620380Y82432439D01*
X83620380Y82241962D01*
X83668000Y82146724D01*
X83715619Y82099105D01*
X83810857Y82051486D01*
X84048952Y82051486D01*
X84144190Y82099105D01*
X84191809Y82146724D01*
X84239428Y82241962D01*
X84239428Y82432439D01*
X84191809Y82527677D01*
X84144190Y82575296D01*
X84048952Y82622915D01*
%TO.C,C8*%
X15879533Y47355258D02*
X15831914Y47307639D01*
X15689057Y47260020D01*
X15593819Y47260020D01*
X15450961Y47307639D01*
X15355723Y47402877D01*
X15308104Y47498115D01*
X15260485Y47688591D01*
X15260485Y47831448D01*
X15308104Y48021924D01*
X15355723Y48117162D01*
X15450961Y48212400D01*
X15593819Y48260020D01*
X15689057Y48260020D01*
X15831914Y48212400D01*
X15879533Y48164781D01*
X16450961Y47831448D02*
X16355723Y47879067D01*
X16308104Y47926686D01*
X16260485Y48021924D01*
X16260485Y48069543D01*
X16308104Y48164781D01*
X16355723Y48212400D01*
X16450961Y48260020D01*
X16641438Y48260020D01*
X16736676Y48212400D01*
X16784295Y48164781D01*
X16831914Y48069543D01*
X16831914Y48021924D01*
X16784295Y47926686D01*
X16736676Y47879067D01*
X16641438Y47831448D01*
X16450961Y47831448D01*
X16355723Y47783829D01*
X16308104Y47736210D01*
X16260485Y47640972D01*
X16260485Y47450496D01*
X16308104Y47355258D01*
X16355723Y47307639D01*
X16450961Y47260020D01*
X16641438Y47260020D01*
X16736676Y47307639D01*
X16784295Y47355258D01*
X16831914Y47450496D01*
X16831914Y47640972D01*
X16784295Y47736210D01*
X16736676Y47783829D01*
X16641438Y47831448D01*
%TO.C,TP3*%
X130481295Y38979420D02*
X131052723Y38979420D01*
X130767009Y37979420D02*
X130767009Y38979420D01*
X131386057Y37979420D02*
X131386057Y38979420D01*
X131767009Y38979420D01*
X131862247Y38931800D01*
X131909866Y38884181D01*
X131957485Y38788943D01*
X131957485Y38646086D01*
X131909866Y38550848D01*
X131862247Y38503229D01*
X131767009Y38455610D01*
X131386057Y38455610D01*
X132290819Y38979420D02*
X132909866Y38979420D01*
X132576533Y38598467D01*
X132719390Y38598467D01*
X132814628Y38550848D01*
X132862247Y38503229D01*
X132909866Y38407991D01*
X132909866Y38169896D01*
X132862247Y38074658D01*
X132814628Y38027039D01*
X132719390Y37979420D01*
X132433676Y37979420D01*
X132338438Y38027039D01*
X132290819Y38074658D01*
%TO.C,C2*%
X124049933Y25638258D02*
X124002314Y25590639D01*
X123859457Y25543020D01*
X123764219Y25543020D01*
X123621361Y25590639D01*
X123526123Y25685877D01*
X123478504Y25781115D01*
X123430885Y25971591D01*
X123430885Y26114448D01*
X123478504Y26304924D01*
X123526123Y26400162D01*
X123621361Y26495400D01*
X123764219Y26543020D01*
X123859457Y26543020D01*
X124002314Y26495400D01*
X124049933Y26447781D01*
X124430885Y26447781D02*
X124478504Y26495400D01*
X124573742Y26543020D01*
X124811838Y26543020D01*
X124907076Y26495400D01*
X124954695Y26447781D01*
X125002314Y26352543D01*
X125002314Y26257305D01*
X124954695Y26114448D01*
X124383266Y25543020D01*
X125002314Y25543020D01*
%TO.C,R7*%
X67974933Y18987820D02*
X67641600Y19464010D01*
X67403504Y18987820D02*
X67403504Y19987820D01*
X67784457Y19987820D01*
X67879695Y19940200D01*
X67927314Y19892581D01*
X67974933Y19797343D01*
X67974933Y19654486D01*
X67927314Y19559248D01*
X67879695Y19511629D01*
X67784457Y19464010D01*
X67403504Y19464010D01*
X68308266Y19987820D02*
X68974933Y19987820D01*
X68546361Y18987820D01*
%TO.C,Y2*%
X101218809Y53272410D02*
X101218809Y52796220D01*
X100885476Y53796220D02*
X101218809Y53272410D01*
X101552142Y53796220D01*
X101837857Y53700981D02*
X101885476Y53748600D01*
X101980714Y53796220D01*
X102218809Y53796220D01*
X102314047Y53748600D01*
X102361666Y53700981D01*
X102409285Y53605743D01*
X102409285Y53510505D01*
X102361666Y53367648D01*
X101790238Y52796220D01*
X102409285Y52796220D01*
%TO.C,J2*%
X131536866Y80002220D02*
X131536866Y79287934D01*
X131489247Y79145077D01*
X131394009Y79049839D01*
X131251152Y79002220D01*
X131155914Y79002220D01*
X131965438Y79906981D02*
X132013057Y79954600D01*
X132108295Y80002220D01*
X132346390Y80002220D01*
X132441628Y79954600D01*
X132489247Y79906981D01*
X132536866Y79811743D01*
X132536866Y79716505D01*
X132489247Y79573648D01*
X131917819Y79002220D01*
X132536866Y79002220D01*
%TO.C,Y1*%
X46471190Y78426410D02*
X46947380Y78426410D01*
X45947380Y78093077D02*
X46471190Y78426410D01*
X45947380Y78759743D01*
X46947380Y79616886D02*
X46947380Y79045458D01*
X46947380Y79331172D02*
X45947380Y79331172D01*
X46090238Y79235934D01*
X46185476Y79140696D01*
X46233095Y79045458D01*
%TO.C,R10*%
X82105780Y77650143D02*
X81629590Y77316810D01*
X82105780Y77078715D02*
X81105780Y77078715D01*
X81105780Y77459667D01*
X81153400Y77554905D01*
X81201019Y77602524D01*
X81296257Y77650143D01*
X81439114Y77650143D01*
X81534352Y77602524D01*
X81581971Y77554905D01*
X81629590Y77459667D01*
X81629590Y77078715D01*
X82105780Y78602524D02*
X82105780Y78031096D01*
X82105780Y78316810D02*
X81105780Y78316810D01*
X81248638Y78221572D01*
X81343876Y78126334D01*
X81391495Y78031096D01*
X81105780Y79221572D02*
X81105780Y79316810D01*
X81153400Y79412048D01*
X81201019Y79459667D01*
X81296257Y79507286D01*
X81486733Y79554905D01*
X81724828Y79554905D01*
X81915304Y79507286D01*
X82010542Y79459667D01*
X82058161Y79412048D01*
X82105780Y79316810D01*
X82105780Y79221572D01*
X82058161Y79126334D01*
X82010542Y79078715D01*
X81915304Y79031096D01*
X81724828Y78983477D01*
X81486733Y78983477D01*
X81296257Y79031096D01*
X81201019Y79078715D01*
X81153400Y79126334D01*
X81105780Y79221572D01*
%TO.C,R4*%
X128299933Y65597820D02*
X127966600Y66074010D01*
X127728504Y65597820D02*
X127728504Y66597820D01*
X128109457Y66597820D01*
X128204695Y66550200D01*
X128252314Y66502581D01*
X128299933Y66407343D01*
X128299933Y66264486D01*
X128252314Y66169248D01*
X128204695Y66121629D01*
X128109457Y66074010D01*
X127728504Y66074010D01*
X129157076Y66264486D02*
X129157076Y65597820D01*
X128918980Y66645439D02*
X128680885Y65931153D01*
X129299933Y65931153D01*
%TO.C,R8*%
X83189533Y19013220D02*
X82856200Y19489410D01*
X82618104Y19013220D02*
X82618104Y20013220D01*
X82999057Y20013220D01*
X83094295Y19965600D01*
X83141914Y19917981D01*
X83189533Y19822743D01*
X83189533Y19679886D01*
X83141914Y19584648D01*
X83094295Y19537029D01*
X82999057Y19489410D01*
X82618104Y19489410D01*
X83760961Y19584648D02*
X83665723Y19632267D01*
X83618104Y19679886D01*
X83570485Y19775124D01*
X83570485Y19822743D01*
X83618104Y19917981D01*
X83665723Y19965600D01*
X83760961Y20013220D01*
X83951438Y20013220D01*
X84046676Y19965600D01*
X84094295Y19917981D01*
X84141914Y19822743D01*
X84141914Y19775124D01*
X84094295Y19679886D01*
X84046676Y19632267D01*
X83951438Y19584648D01*
X83760961Y19584648D01*
X83665723Y19537029D01*
X83618104Y19489410D01*
X83570485Y19394172D01*
X83570485Y19203696D01*
X83618104Y19108458D01*
X83665723Y19060839D01*
X83760961Y19013220D01*
X83951438Y19013220D01*
X84046676Y19060839D01*
X84094295Y19108458D01*
X84141914Y19203696D01*
X84141914Y19394172D01*
X84094295Y19489410D01*
X84046676Y19537029D01*
X83951438Y19584648D01*
%TO.C,R5*%
X125556733Y70600620D02*
X125223400Y71076810D01*
X124985304Y70600620D02*
X124985304Y71600620D01*
X125366257Y71600620D01*
X125461495Y71553000D01*
X125509114Y71505381D01*
X125556733Y71410143D01*
X125556733Y71267286D01*
X125509114Y71172048D01*
X125461495Y71124429D01*
X125366257Y71076810D01*
X124985304Y71076810D01*
X126461495Y71600620D02*
X125985304Y71600620D01*
X125937685Y71124429D01*
X125985304Y71172048D01*
X126080542Y71219667D01*
X126318638Y71219667D01*
X126413876Y71172048D01*
X126461495Y71124429D01*
X126509114Y71029191D01*
X126509114Y70791096D01*
X126461495Y70695858D01*
X126413876Y70648239D01*
X126318638Y70600620D01*
X126080542Y70600620D01*
X125985304Y70648239D01*
X125937685Y70695858D01*
%TO.C,U2*%
X51413095Y83040220D02*
X51413095Y82230696D01*
X51460714Y82135458D01*
X51508333Y82087839D01*
X51603571Y82040220D01*
X51794047Y82040220D01*
X51889285Y82087839D01*
X51936904Y82135458D01*
X51984523Y82230696D01*
X51984523Y83040220D01*
X52413095Y82944981D02*
X52460714Y82992600D01*
X52555952Y83040220D01*
X52794047Y83040220D01*
X52889285Y82992600D01*
X52936904Y82944981D01*
X52984523Y82849743D01*
X52984523Y82754505D01*
X52936904Y82611648D01*
X52365476Y82040220D01*
X52984523Y82040220D01*
%TO.C,J3*%
X107757466Y87454820D02*
X107757466Y86740534D01*
X107709847Y86597677D01*
X107614609Y86502439D01*
X107471752Y86454820D01*
X107376514Y86454820D01*
X108138419Y87454820D02*
X108757466Y87454820D01*
X108424133Y87073867D01*
X108566990Y87073867D01*
X108662228Y87026248D01*
X108709847Y86978629D01*
X108757466Y86883391D01*
X108757466Y86645296D01*
X108709847Y86550058D01*
X108662228Y86502439D01*
X108566990Y86454820D01*
X108281276Y86454820D01*
X108186038Y86502439D01*
X108138419Y86550058D01*
%TO.C,TP5*%
X29084495Y34949420D02*
X29655923Y34949420D01*
X29370209Y33949420D02*
X29370209Y34949420D01*
X29989257Y33949420D02*
X29989257Y34949420D01*
X30370209Y34949420D01*
X30465447Y34901800D01*
X30513066Y34854181D01*
X30560685Y34758943D01*
X30560685Y34616086D01*
X30513066Y34520848D01*
X30465447Y34473229D01*
X30370209Y34425610D01*
X29989257Y34425610D01*
X31465447Y34949420D02*
X30989257Y34949420D01*
X30941638Y34473229D01*
X30989257Y34520848D01*
X31084495Y34568467D01*
X31322590Y34568467D01*
X31417828Y34520848D01*
X31465447Y34473229D01*
X31513066Y34377991D01*
X31513066Y34139896D01*
X31465447Y34044658D01*
X31417828Y33997039D01*
X31322590Y33949420D01*
X31084495Y33949420D01*
X30989257Y33997039D01*
X30941638Y34044658D01*
%TO.C,H2*%
X134130895Y80101220D02*
X134130895Y81101220D01*
X134130895Y80625029D02*
X134702323Y80625029D01*
X134702323Y80101220D02*
X134702323Y81101220D01*
X135130895Y81005981D02*
X135178514Y81053600D01*
X135273752Y81101220D01*
X135511847Y81101220D01*
X135607085Y81053600D01*
X135654704Y81005981D01*
X135702323Y80910743D01*
X135702323Y80815505D01*
X135654704Y80672648D01*
X135083276Y80101220D01*
X135702323Y80101220D01*
%TO.C,SW3*%
X73666266Y24073039D02*
X73809123Y24025420D01*
X74047219Y24025420D01*
X74142457Y24073039D01*
X74190076Y24120658D01*
X74237695Y24215896D01*
X74237695Y24311134D01*
X74190076Y24406372D01*
X74142457Y24453991D01*
X74047219Y24501610D01*
X73856742Y24549229D01*
X73761504Y24596848D01*
X73713885Y24644467D01*
X73666266Y24739705D01*
X73666266Y24834943D01*
X73713885Y24930181D01*
X73761504Y24977800D01*
X73856742Y25025420D01*
X74094838Y25025420D01*
X74237695Y24977800D01*
X74571028Y25025420D02*
X74809123Y24025420D01*
X74999600Y24739705D01*
X75190076Y24025420D01*
X75428171Y25025420D01*
X75713885Y25025420D02*
X76332933Y25025420D01*
X75999600Y24644467D01*
X76142457Y24644467D01*
X76237695Y24596848D01*
X76285314Y24549229D01*
X76332933Y24453991D01*
X76332933Y24215896D01*
X76285314Y24120658D01*
X76237695Y24073039D01*
X76142457Y24025420D01*
X75856742Y24025420D01*
X75761504Y24073039D01*
X75713885Y24120658D01*
%TO.C,H3*%
X4184495Y10810020D02*
X4184495Y11810020D01*
X4184495Y11333829D02*
X4755923Y11333829D01*
X4755923Y10810020D02*
X4755923Y11810020D01*
X5136876Y11810020D02*
X5755923Y11810020D01*
X5422590Y11429067D01*
X5565447Y11429067D01*
X5660685Y11381448D01*
X5708304Y11333829D01*
X5755923Y11238591D01*
X5755923Y11000496D01*
X5708304Y10905258D01*
X5660685Y10857639D01*
X5565447Y10810020D01*
X5279733Y10810020D01*
X5184495Y10857639D01*
X5136876Y10905258D01*
%TO.C,TP1*%
X61318495Y77466420D02*
X61889923Y77466420D01*
X61604209Y76466420D02*
X61604209Y77466420D01*
X62223257Y76466420D02*
X62223257Y77466420D01*
X62604209Y77466420D01*
X62699447Y77418800D01*
X62747066Y77371181D01*
X62794685Y77275943D01*
X62794685Y77133086D01*
X62747066Y77037848D01*
X62699447Y76990229D01*
X62604209Y76942610D01*
X62223257Y76942610D01*
X63747066Y76466420D02*
X63175638Y76466420D01*
X63461352Y76466420D02*
X63461352Y77466420D01*
X63366114Y77323562D01*
X63270876Y77228324D01*
X63175638Y77180705D01*
%TO.C,SW2*%
X58426266Y24073039D02*
X58569123Y24025420D01*
X58807219Y24025420D01*
X58902457Y24073039D01*
X58950076Y24120658D01*
X58997695Y24215896D01*
X58997695Y24311134D01*
X58950076Y24406372D01*
X58902457Y24453991D01*
X58807219Y24501610D01*
X58616742Y24549229D01*
X58521504Y24596848D01*
X58473885Y24644467D01*
X58426266Y24739705D01*
X58426266Y24834943D01*
X58473885Y24930181D01*
X58521504Y24977800D01*
X58616742Y25025420D01*
X58854838Y25025420D01*
X58997695Y24977800D01*
X59331028Y25025420D02*
X59569123Y24025420D01*
X59759600Y24739705D01*
X59950076Y24025420D01*
X60188171Y25025420D01*
X60521504Y24930181D02*
X60569123Y24977800D01*
X60664361Y25025420D01*
X60902457Y25025420D01*
X60997695Y24977800D01*
X61045314Y24930181D01*
X61092933Y24834943D01*
X61092933Y24739705D01*
X61045314Y24596848D01*
X60473885Y24025420D01*
X61092933Y24025420D01*
%TO.C,DS1*%
X41044980Y28560796D02*
X40044980Y28560796D01*
X40044980Y28798891D01*
X40092600Y28941748D01*
X40187838Y29036986D01*
X40283076Y29084605D01*
X40473552Y29132224D01*
X40616409Y29132224D01*
X40806885Y29084605D01*
X40902123Y29036986D01*
X40997361Y28941748D01*
X41044980Y28798891D01*
X41044980Y28560796D01*
X40997361Y29513177D02*
X41044980Y29656034D01*
X41044980Y29894129D01*
X40997361Y29989367D01*
X40949742Y30036986D01*
X40854504Y30084605D01*
X40759266Y30084605D01*
X40664028Y30036986D01*
X40616409Y29989367D01*
X40568790Y29894129D01*
X40521171Y29703653D01*
X40473552Y29608415D01*
X40425933Y29560796D01*
X40330695Y29513177D01*
X40235457Y29513177D01*
X40140219Y29560796D01*
X40092600Y29608415D01*
X40044980Y29703653D01*
X40044980Y29941748D01*
X40092600Y30084605D01*
X41044980Y31036986D02*
X41044980Y30465558D01*
X41044980Y30751272D02*
X40044980Y30751272D01*
X40187838Y30656034D01*
X40283076Y30560796D01*
X40330695Y30465558D01*
%TO.C,R12*%
X15403342Y53100020D02*
X15070009Y53576210D01*
X14831914Y53100020D02*
X14831914Y54100020D01*
X15212866Y54100020D01*
X15308104Y54052400D01*
X15355723Y54004781D01*
X15403342Y53909543D01*
X15403342Y53766686D01*
X15355723Y53671448D01*
X15308104Y53623829D01*
X15212866Y53576210D01*
X14831914Y53576210D01*
X16355723Y53100020D02*
X15784295Y53100020D01*
X16070009Y53100020D02*
X16070009Y54100020D01*
X15974771Y53957162D01*
X15879533Y53861924D01*
X15784295Y53814305D01*
X16736676Y54004781D02*
X16784295Y54052400D01*
X16879533Y54100020D01*
X17117628Y54100020D01*
X17212866Y54052400D01*
X17260485Y54004781D01*
X17308104Y53909543D01*
X17308104Y53814305D01*
X17260485Y53671448D01*
X16689057Y53100020D01*
X17308104Y53100020D01*
%TO.C,C6*%
X95864133Y52586658D02*
X95816514Y52539039D01*
X95673657Y52491420D01*
X95578419Y52491420D01*
X95435561Y52539039D01*
X95340323Y52634277D01*
X95292704Y52729515D01*
X95245085Y52919991D01*
X95245085Y53062848D01*
X95292704Y53253324D01*
X95340323Y53348562D01*
X95435561Y53443800D01*
X95578419Y53491420D01*
X95673657Y53491420D01*
X95816514Y53443800D01*
X95864133Y53396181D01*
X96721276Y53491420D02*
X96530800Y53491420D01*
X96435561Y53443800D01*
X96387942Y53396181D01*
X96292704Y53253324D01*
X96245085Y53062848D01*
X96245085Y52681896D01*
X96292704Y52586658D01*
X96340323Y52539039D01*
X96435561Y52491420D01*
X96626038Y52491420D01*
X96721276Y52539039D01*
X96768895Y52586658D01*
X96816514Y52681896D01*
X96816514Y52919991D01*
X96768895Y53015229D01*
X96721276Y53062848D01*
X96626038Y53110467D01*
X96435561Y53110467D01*
X96340323Y53062848D01*
X96292704Y53015229D01*
X96245085Y52919991D01*
%TO.C,C4*%
X97667533Y81644258D02*
X97619914Y81596639D01*
X97477057Y81549020D01*
X97381819Y81549020D01*
X97238961Y81596639D01*
X97143723Y81691877D01*
X97096104Y81787115D01*
X97048485Y81977591D01*
X97048485Y82120448D01*
X97096104Y82310924D01*
X97143723Y82406162D01*
X97238961Y82501400D01*
X97381819Y82549020D01*
X97477057Y82549020D01*
X97619914Y82501400D01*
X97667533Y82453781D01*
X98524676Y82215686D02*
X98524676Y81549020D01*
X98286580Y82596639D02*
X98048485Y81882353D01*
X98667533Y81882353D01*
%TO.C,R3*%
X93639380Y82291934D02*
X93163190Y81958600D01*
X93639380Y81720505D02*
X92639380Y81720505D01*
X92639380Y82101458D01*
X92687000Y82196696D01*
X92734619Y82244315D01*
X92829857Y82291934D01*
X92972714Y82291934D01*
X93067952Y82244315D01*
X93115571Y82196696D01*
X93163190Y82101458D01*
X93163190Y81720505D01*
X92639380Y82625267D02*
X92639380Y83244315D01*
X93020333Y82910981D01*
X93020333Y83053839D01*
X93067952Y83149077D01*
X93115571Y83196696D01*
X93210809Y83244315D01*
X93448904Y83244315D01*
X93544142Y83196696D01*
X93591761Y83149077D01*
X93639380Y83053839D01*
X93639380Y82768124D01*
X93591761Y82672886D01*
X93544142Y82625267D01*
%TO.C,U3*%
X77110380Y65120496D02*
X77919904Y65120496D01*
X78015142Y65168115D01*
X78062761Y65215734D01*
X78110380Y65310972D01*
X78110380Y65501448D01*
X78062761Y65596686D01*
X78015142Y65644305D01*
X77919904Y65691924D01*
X77110380Y65691924D01*
X77110380Y66072877D02*
X77110380Y66691924D01*
X77491333Y66358591D01*
X77491333Y66501448D01*
X77538952Y66596686D01*
X77586571Y66644305D01*
X77681809Y66691924D01*
X77919904Y66691924D01*
X78015142Y66644305D01*
X78062761Y66596686D01*
X78110380Y66501448D01*
X78110380Y66215734D01*
X78062761Y66120496D01*
X78015142Y66072877D01*
%TO.C,H1*%
X4184495Y80152020D02*
X4184495Y81152020D01*
X4184495Y80675829D02*
X4755923Y80675829D01*
X4755923Y80152020D02*
X4755923Y81152020D01*
X5755923Y80152020D02*
X5184495Y80152020D01*
X5470209Y80152020D02*
X5470209Y81152020D01*
X5374971Y81009162D01*
X5279733Y80913924D01*
X5184495Y80866305D01*
%TO.C,C9*%
X12069533Y47355258D02*
X12021914Y47307639D01*
X11879057Y47260020D01*
X11783819Y47260020D01*
X11640961Y47307639D01*
X11545723Y47402877D01*
X11498104Y47498115D01*
X11450485Y47688591D01*
X11450485Y47831448D01*
X11498104Y48021924D01*
X11545723Y48117162D01*
X11640961Y48212400D01*
X11783819Y48260020D01*
X11879057Y48260020D01*
X12021914Y48212400D01*
X12069533Y48164781D01*
X12545723Y47260020D02*
X12736200Y47260020D01*
X12831438Y47307639D01*
X12879057Y47355258D01*
X12974295Y47498115D01*
X13021914Y47688591D01*
X13021914Y48069543D01*
X12974295Y48164781D01*
X12926676Y48212400D01*
X12831438Y48260020D01*
X12640961Y48260020D01*
X12545723Y48212400D01*
X12498104Y48164781D01*
X12450485Y48069543D01*
X12450485Y47831448D01*
X12498104Y47736210D01*
X12545723Y47688591D01*
X12640961Y47640972D01*
X12831438Y47640972D01*
X12926676Y47688591D01*
X12974295Y47736210D01*
X13021914Y47831448D01*
%TO.C,D1*%
X104788980Y78559105D02*
X103788980Y78559105D01*
X103788980Y78797200D01*
X103836600Y78940058D01*
X103931838Y79035296D01*
X104027076Y79082915D01*
X104217552Y79130534D01*
X104360409Y79130534D01*
X104550885Y79082915D01*
X104646123Y79035296D01*
X104741361Y78940058D01*
X104788980Y78797200D01*
X104788980Y78559105D01*
X104788980Y80082915D02*
X104788980Y79511486D01*
X104788980Y79797200D02*
X103788980Y79797200D01*
X103931838Y79701962D01*
X104027076Y79606724D01*
X104074695Y79511486D01*
%TO.C,SW4*%
X88906266Y24073039D02*
X89049123Y24025420D01*
X89287219Y24025420D01*
X89382457Y24073039D01*
X89430076Y24120658D01*
X89477695Y24215896D01*
X89477695Y24311134D01*
X89430076Y24406372D01*
X89382457Y24453991D01*
X89287219Y24501610D01*
X89096742Y24549229D01*
X89001504Y24596848D01*
X88953885Y24644467D01*
X88906266Y24739705D01*
X88906266Y24834943D01*
X88953885Y24930181D01*
X89001504Y24977800D01*
X89096742Y25025420D01*
X89334838Y25025420D01*
X89477695Y24977800D01*
X89811028Y25025420D02*
X90049123Y24025420D01*
X90239600Y24739705D01*
X90430076Y24025420D01*
X90668171Y25025420D01*
X91477695Y24692086D02*
X91477695Y24025420D01*
X91239600Y25073039D02*
X91001504Y24358753D01*
X91620552Y24358753D01*
%TO.C,C1*%
X125734533Y62264058D02*
X125686914Y62216439D01*
X125544057Y62168820D01*
X125448819Y62168820D01*
X125305961Y62216439D01*
X125210723Y62311677D01*
X125163104Y62406915D01*
X125115485Y62597391D01*
X125115485Y62740248D01*
X125163104Y62930724D01*
X125210723Y63025962D01*
X125305961Y63121200D01*
X125448819Y63168820D01*
X125544057Y63168820D01*
X125686914Y63121200D01*
X125734533Y63073581D01*
X126686914Y62168820D02*
X126115485Y62168820D01*
X126401200Y62168820D02*
X126401200Y63168820D01*
X126305961Y63025962D01*
X126210723Y62930724D01*
X126115485Y62883105D01*
%TO.C,U1*%
X122387895Y30297020D02*
X122387895Y29487496D01*
X122435514Y29392258D01*
X122483133Y29344639D01*
X122578371Y29297020D01*
X122768847Y29297020D01*
X122864085Y29344639D01*
X122911704Y29392258D01*
X122959323Y29487496D01*
X122959323Y30297020D01*
X123959323Y29297020D02*
X123387895Y29297020D01*
X123673609Y29297020D02*
X123673609Y30297020D01*
X123578371Y30154162D01*
X123483133Y30058924D01*
X123387895Y30011305D01*
%TO.C,R1*%
X101284780Y82571334D02*
X100808590Y82238000D01*
X101284780Y81999905D02*
X100284780Y81999905D01*
X100284780Y82380858D01*
X100332400Y82476096D01*
X100380019Y82523715D01*
X100475257Y82571334D01*
X100618114Y82571334D01*
X100713352Y82523715D01*
X100760971Y82476096D01*
X100808590Y82380858D01*
X100808590Y81999905D01*
X101284780Y83523715D02*
X101284780Y82952286D01*
X101284780Y83238000D02*
X100284780Y83238000D01*
X100427638Y83142762D01*
X100522876Y83047524D01*
X100570495Y82952286D01*
%TO.C,R2*%
X92436533Y78581620D02*
X92103200Y79057810D01*
X91865104Y78581620D02*
X91865104Y79581620D01*
X92246057Y79581620D01*
X92341295Y79534000D01*
X92388914Y79486381D01*
X92436533Y79391143D01*
X92436533Y79248286D01*
X92388914Y79153048D01*
X92341295Y79105429D01*
X92246057Y79057810D01*
X91865104Y79057810D01*
X92817485Y79486381D02*
X92865104Y79534000D01*
X92960342Y79581620D01*
X93198438Y79581620D01*
X93293676Y79534000D01*
X93341295Y79486381D01*
X93388914Y79391143D01*
X93388914Y79295905D01*
X93341295Y79153048D01*
X92769866Y78581620D01*
X93388914Y78581620D01*
%TO.C,R11*%
X78678780Y57507943D02*
X78202590Y57174610D01*
X78678780Y56936515D02*
X77678780Y56936515D01*
X77678780Y57317467D01*
X77726400Y57412705D01*
X77774019Y57460324D01*
X77869257Y57507943D01*
X78012114Y57507943D01*
X78107352Y57460324D01*
X78154971Y57412705D01*
X78202590Y57317467D01*
X78202590Y56936515D01*
X78678780Y58460324D02*
X78678780Y57888896D01*
X78678780Y58174610D02*
X77678780Y58174610D01*
X77821638Y58079372D01*
X77916876Y57984134D01*
X77964495Y57888896D01*
X78678780Y59412705D02*
X78678780Y58841277D01*
X78678780Y59126991D02*
X77678780Y59126991D01*
X77821638Y59031753D01*
X77916876Y58936515D01*
X77964495Y58841277D01*
%TO.C,U4*%
X22894295Y34875020D02*
X22894295Y34065496D01*
X22941914Y33970258D01*
X22989533Y33922639D01*
X23084771Y33875020D01*
X23275247Y33875020D01*
X23370485Y33922639D01*
X23418104Y33970258D01*
X23465723Y34065496D01*
X23465723Y34875020D01*
X24370485Y34541686D02*
X24370485Y33875020D01*
X24132390Y34922639D02*
X23894295Y34208353D01*
X24513342Y34208353D01*
%TO.C,C3*%
X126073342Y40776534D02*
X126120961Y40728915D01*
X126168580Y40586058D01*
X126168580Y40490820D01*
X126120961Y40347962D01*
X126025723Y40252724D01*
X125930485Y40205105D01*
X125740009Y40157486D01*
X125597152Y40157486D01*
X125406676Y40205105D01*
X125311438Y40252724D01*
X125216200Y40347962D01*
X125168580Y40490820D01*
X125168580Y40586058D01*
X125216200Y40728915D01*
X125263819Y40776534D01*
X125168580Y41109867D02*
X125168580Y41728915D01*
X125549533Y41395581D01*
X125549533Y41538439D01*
X125597152Y41633677D01*
X125644771Y41681296D01*
X125740009Y41728915D01*
X125978104Y41728915D01*
X126073342Y41681296D01*
X126120961Y41633677D01*
X126168580Y41538439D01*
X126168580Y41252724D01*
X126120961Y41157486D01*
X126073342Y41109867D01*
%TO.C,C7*%
X106125733Y52586658D02*
X106078114Y52539039D01*
X105935257Y52491420D01*
X105840019Y52491420D01*
X105697161Y52539039D01*
X105601923Y52634277D01*
X105554304Y52729515D01*
X105506685Y52919991D01*
X105506685Y53062848D01*
X105554304Y53253324D01*
X105601923Y53348562D01*
X105697161Y53443800D01*
X105840019Y53491420D01*
X105935257Y53491420D01*
X106078114Y53443800D01*
X106125733Y53396181D01*
X106459066Y53491420D02*
X107125733Y53491420D01*
X106697161Y52491420D01*
%TO.C,TP7*%
X23877495Y80330620D02*
X24448923Y80330620D01*
X24163209Y79330620D02*
X24163209Y80330620D01*
X24782257Y79330620D02*
X24782257Y80330620D01*
X25163209Y80330620D01*
X25258447Y80283000D01*
X25306066Y80235381D01*
X25353685Y80140143D01*
X25353685Y79997286D01*
X25306066Y79902048D01*
X25258447Y79854429D01*
X25163209Y79806810D01*
X24782257Y79806810D01*
X25687019Y80330620D02*
X26353685Y80330620D01*
X25925114Y79330620D01*
%TO.C,TP6*%
X13983780Y63416696D02*
X13983780Y63988124D01*
X14983780Y63702410D02*
X13983780Y63702410D01*
X14983780Y64321458D02*
X13983780Y64321458D01*
X13983780Y64702410D01*
X14031400Y64797648D01*
X14079019Y64845267D01*
X14174257Y64892886D01*
X14317114Y64892886D01*
X14412352Y64845267D01*
X14459971Y64797648D01*
X14507590Y64702410D01*
X14507590Y64321458D01*
X13983780Y65750029D02*
X13983780Y65559553D01*
X14031400Y65464315D01*
X14079019Y65416696D01*
X14221876Y65321458D01*
X14412352Y65273839D01*
X14793304Y65273839D01*
X14888542Y65321458D01*
X14936161Y65369077D01*
X14983780Y65464315D01*
X14983780Y65654791D01*
X14936161Y65750029D01*
X14888542Y65797648D01*
X14793304Y65845267D01*
X14555209Y65845267D01*
X14459971Y65797648D01*
X14412352Y65750029D01*
X14364733Y65654791D01*
X14364733Y65464315D01*
X14412352Y65369077D01*
X14459971Y65321458D01*
X14555209Y65273839D01*
%TO.C,SW1*%
X115474666Y78657639D02*
X115617523Y78610020D01*
X115855619Y78610020D01*
X115950857Y78657639D01*
X115998476Y78705258D01*
X116046095Y78800496D01*
X116046095Y78895734D01*
X115998476Y78990972D01*
X115950857Y79038591D01*
X115855619Y79086210D01*
X115665142Y79133829D01*
X115569904Y79181448D01*
X115522285Y79229067D01*
X115474666Y79324305D01*
X115474666Y79419543D01*
X115522285Y79514781D01*
X115569904Y79562400D01*
X115665142Y79610020D01*
X115903238Y79610020D01*
X116046095Y79562400D01*
X116379428Y79610020D02*
X116617523Y78610020D01*
X116808000Y79324305D01*
X116998476Y78610020D01*
X117236571Y79610020D01*
X118141333Y78610020D02*
X117569904Y78610020D01*
X117855619Y78610020D02*
X117855619Y79610020D01*
X117760380Y79467162D01*
X117665142Y79371924D01*
X117569904Y79324305D01*
%TO.C,TP2*%
X57737095Y75002620D02*
X58308523Y75002620D01*
X58022809Y74002620D02*
X58022809Y75002620D01*
X58641857Y74002620D02*
X58641857Y75002620D01*
X59022809Y75002620D01*
X59118047Y74955000D01*
X59165666Y74907381D01*
X59213285Y74812143D01*
X59213285Y74669286D01*
X59165666Y74574048D01*
X59118047Y74526429D01*
X59022809Y74478810D01*
X58641857Y74478810D01*
X59594238Y74907381D02*
X59641857Y74955000D01*
X59737095Y75002620D01*
X59975190Y75002620D01*
X60070428Y74955000D01*
X60118047Y74907381D01*
X60165666Y74812143D01*
X60165666Y74716905D01*
X60118047Y74574048D01*
X59546619Y74002620D01*
X60165666Y74002620D01*
%TO.C,TP8*%
X108230895Y14062020D02*
X108802323Y14062020D01*
X108516609Y13062020D02*
X108516609Y14062020D01*
X109135657Y13062020D02*
X109135657Y14062020D01*
X109516609Y14062020D01*
X109611847Y14014400D01*
X109659466Y13966781D01*
X109707085Y13871543D01*
X109707085Y13728686D01*
X109659466Y13633448D01*
X109611847Y13585829D01*
X109516609Y13538210D01*
X109135657Y13538210D01*
X110278514Y13633448D02*
X110183276Y13681067D01*
X110135657Y13728686D01*
X110088038Y13823924D01*
X110088038Y13871543D01*
X110135657Y13966781D01*
X110183276Y14014400D01*
X110278514Y14062020D01*
X110468990Y14062020D01*
X110564228Y14014400D01*
X110611847Y13966781D01*
X110659466Y13871543D01*
X110659466Y13823924D01*
X110611847Y13728686D01*
X110564228Y13681067D01*
X110468990Y13633448D01*
X110278514Y13633448D01*
X110183276Y13585829D01*
X110135657Y13538210D01*
X110088038Y13442972D01*
X110088038Y13252496D01*
X110135657Y13157258D01*
X110183276Y13109639D01*
X110278514Y13062020D01*
X110468990Y13062020D01*
X110564228Y13109639D01*
X110611847Y13157258D01*
X110659466Y13252496D01*
X110659466Y13442972D01*
X110611847Y13538210D01*
X110564228Y13585829D01*
X110468990Y13633448D01*
D11*
%TO.C,TP4*%
X31674000Y64602400D02*
G75*
G03*
X31674000Y64602400I-1200000J0D01*
G01*
%TO.C,TP3*%
X132943200Y36433800D02*
G75*
G03*
X132943200Y36433800I-1200000J0D01*
G01*
%TO.C,Y2*%
X107595000Y59151400D02*
X94995000Y59151400D01*
X94995000Y59151400D02*
X94995000Y54051400D01*
X94995000Y54051400D02*
X107595000Y54051400D01*
%TO.C,J2*%
X130540200Y63094600D02*
X133200200Y63094600D01*
X130540200Y75854600D02*
X130540200Y63094600D01*
X133200200Y75854600D02*
X133200200Y63094600D01*
X130540200Y75854600D02*
X133200200Y75854600D01*
X130540200Y77124600D02*
X130540200Y78454600D01*
X130540200Y78454600D02*
X131870200Y78454600D01*
%TO.C,Y1*%
X45445000Y80852600D02*
X43645000Y80852600D01*
X43595000Y79452600D02*
X43595000Y78352600D01*
X45495000Y79452600D02*
X45495000Y78352600D01*
%TO.C,U2*%
X49525000Y71212600D02*
X54825000Y71212600D01*
X49525000Y81492600D02*
X49525000Y71212600D01*
X51175000Y81492600D02*
X49525000Y81492600D01*
X54825000Y81492600D02*
X53175000Y81492600D01*
X54825000Y71212600D02*
X54825000Y81492600D01*
X51175000Y81492600D02*
G75*
G03*
X53175000Y81492600I1000000J0D01*
G01*
%TO.C,J3*%
X105490800Y85907200D02*
X106820800Y85907200D01*
X105490800Y84577200D02*
X105490800Y85907200D01*
X108090800Y85907200D02*
X110690800Y85907200D01*
X108090800Y83307200D02*
X108090800Y85907200D01*
X105490800Y83307200D02*
X108090800Y83307200D01*
X110690800Y85907200D02*
X110690800Y78167200D01*
X105490800Y83307200D02*
X105490800Y78167200D01*
X105490800Y78167200D02*
X110690800Y78167200D01*
%TO.C,TP5*%
X31623200Y36713200D02*
G75*
G03*
X31623200Y36713200I-1200000J0D01*
G01*
%TO.C,SW3*%
X69899600Y23477800D02*
X70899600Y23477800D01*
X69899600Y22477800D02*
X69899600Y23477800D01*
X71899600Y21477800D02*
X71899600Y18877800D01*
X78099600Y21477800D02*
X78099600Y18877800D01*
X77999600Y16927800D02*
X71999600Y16927800D01*
X77899600Y23427800D02*
X72099600Y23427800D01*
%TO.C,TP1*%
X63780400Y74920800D02*
G75*
G03*
X63780400Y74920800I-1200000J0D01*
G01*
%TO.C,SW2*%
X54659600Y23477800D02*
X55659600Y23477800D01*
X54659600Y22477800D02*
X54659600Y23477800D01*
X56659600Y21477800D02*
X56659600Y18877800D01*
X62859600Y21477800D02*
X62859600Y18877800D01*
X62759600Y16927800D02*
X56759600Y16927800D01*
X62659600Y23427800D02*
X56859600Y23427800D01*
D12*
%TO.C,DS1*%
X59122600Y27625200D02*
G75*
G03*
X59122600Y27625200I-125000J0D01*
G01*
D10*
X91842600Y28225200D02*
X41392600Y28225200D01*
X91842600Y28225200D02*
X91842600Y47475200D01*
X91842600Y47475200D02*
X41392600Y47475200D01*
X41392600Y28225200D02*
X41392600Y47475200D01*
D11*
%TO.C,U3*%
X78658000Y68532400D02*
X78658000Y66882400D01*
X114338000Y68532400D02*
X78658000Y68532400D01*
X114338000Y63232400D02*
X114338000Y68532400D01*
X78658000Y63232400D02*
X114338000Y63232400D01*
X78658000Y64882400D02*
X78658000Y63232400D01*
X78658000Y64882400D02*
G75*
G03*
X78658000Y66882400I0J1000000D01*
G01*
%TO.C,D1*%
X101522400Y80334400D02*
X101522400Y77649400D01*
X101522400Y77649400D02*
X103442400Y77649400D01*
X103442400Y77649400D02*
X103442400Y80334400D01*
%TO.C,SW4*%
X85139600Y23477800D02*
X86139600Y23477800D01*
X85139600Y22477800D02*
X85139600Y23477800D01*
X87139600Y21477800D02*
X87139600Y18877800D01*
X93339600Y21477800D02*
X93339600Y18877800D01*
X93239600Y16927800D02*
X87239600Y16927800D01*
X93139600Y23427800D02*
X87339600Y23427800D01*
%TO.C,U1*%
X124119800Y30799400D02*
X125619800Y30799400D01*
X125619800Y31069400D02*
X128449800Y31069400D01*
X125619800Y37429400D02*
X126719800Y37429400D01*
X124119800Y37699400D02*
X125619800Y37699400D01*
X125619800Y30799400D02*
X125619800Y31069400D01*
X125619800Y37699400D02*
X125619800Y37429400D01*
%TO.C,R2*%
X91283200Y78284000D02*
X94733200Y78284000D01*
X91283200Y73984000D02*
X94733200Y73984000D01*
X94761227Y74001856D02*
G75*
G03*
X94733200Y78284000I-1378027J2132144D01*
G01*
X91257724Y78268388D02*
G75*
G03*
X91283200Y73984000I1325476J-2134388D01*
G01*
%TO.C,U4*%
X24656200Y35327400D02*
X26306200Y35327400D01*
X26306200Y65927400D02*
X21006200Y65927400D01*
X21006200Y35327400D02*
X22656200Y35327400D01*
X26306200Y35327400D02*
X26306200Y65927400D01*
X21006200Y65927400D02*
X21006200Y35327400D01*
X24656200Y35327400D02*
G75*
G03*
X22656200Y35327400I-1000000J0D01*
G01*
%TO.C,TP7*%
X26339400Y77785000D02*
G75*
G03*
X26339400Y77785000I-1200000J0D01*
G01*
%TO.C,TP6*%
X17729400Y64678600D02*
G75*
G03*
X17729400Y64678600I-1200000J0D01*
G01*
%TO.C,SW1*%
X111708000Y78062400D02*
X112708000Y78062400D01*
X111708000Y77062400D02*
X111708000Y78062400D01*
X113708000Y76062400D02*
X113708000Y73462400D01*
X119908000Y76062400D02*
X119908000Y73462400D01*
X119808000Y71512400D02*
X113808000Y71512400D01*
X119708000Y78012400D02*
X113908000Y78012400D01*
%TO.C,TP2*%
X60199000Y72457000D02*
G75*
G03*
X60199000Y72457000I-1200000J0D01*
G01*
%TO.C,TP8*%
X110692800Y11516400D02*
G75*
G03*
X110692800Y11516400I-1200000J0D01*
G01*
%TD*%
%LPC*%
D13*
%TO.C,H4*%
X134932600Y5476000D03*
%TD*%
D14*
%TO.C,C5*%
X100221800Y76604800D03*
X100221800Y78304800D03*
%TD*%
D15*
%TO.C,TP4*%
X30474000Y64602400D03*
%TD*%
D16*
%TO.C,R6*%
X51772200Y17739400D03*
X53472200Y17739400D03*
%TD*%
D14*
%TO.C,R9*%
X82518000Y82687200D03*
X82518000Y80987200D03*
%TD*%
D16*
%TO.C,C8*%
X16896200Y49362400D03*
X15196200Y49362400D03*
%TD*%
D15*
%TO.C,TP3*%
X131743200Y36433800D03*
%TD*%
D16*
%TO.C,C2*%
X125066600Y27645400D03*
X123366600Y27645400D03*
%TD*%
%TO.C,R7*%
X67291600Y17790200D03*
X68991600Y17790200D03*
%TD*%
D17*
%TO.C,Y2*%
X97445000Y56601400D03*
X105945000Y56601400D03*
%TD*%
D18*
%TO.C,J2*%
X131870200Y64424600D03*
X131870200Y66964600D03*
X131870200Y69504600D03*
X131870200Y72044600D03*
X131870200Y74584600D03*
D19*
X131870200Y77124600D03*
%TD*%
D20*
%TO.C,Y1*%
X44545000Y80152600D03*
X44545000Y77652600D03*
%TD*%
D14*
%TO.C,R10*%
X80003400Y79143000D03*
X80003400Y77443000D03*
%TD*%
D16*
%TO.C,R4*%
X124848000Y66990000D03*
X126548000Y66990000D03*
%TD*%
%TO.C,R8*%
X82506200Y17815600D03*
X84206200Y17815600D03*
%TD*%
%TO.C,R5*%
X124873400Y69403000D03*
X126573400Y69403000D03*
%TD*%
D21*
%TO.C,U2*%
X48365000Y80162600D03*
D22*
X48365000Y77622600D03*
X48365000Y75082600D03*
X48365000Y72542600D03*
X55985000Y72542600D03*
X55985000Y75082600D03*
X55985000Y77622600D03*
X55985000Y80162600D03*
%TD*%
D19*
%TO.C,J3*%
X106820800Y84577200D03*
D18*
X109360800Y84577200D03*
X106820800Y82037200D03*
X109360800Y82037200D03*
X106820800Y79497200D03*
X109360800Y79497200D03*
%TD*%
D15*
%TO.C,TP5*%
X30423200Y36713200D03*
%TD*%
D13*
%TO.C,H2*%
X134932600Y85476000D03*
%TD*%
D23*
%TO.C,SW3*%
X78999600Y22427800D03*
X70999600Y22427800D03*
X78999600Y17927800D03*
X70999600Y17927800D03*
%TD*%
D13*
%TO.C,H3*%
X4932600Y5476000D03*
%TD*%
D15*
%TO.C,TP1*%
X62580400Y74920800D03*
%TD*%
D23*
%TO.C,SW2*%
X63759600Y22427800D03*
X55759600Y22427800D03*
X63759600Y17927800D03*
X55759600Y17927800D03*
%TD*%
D24*
%TO.C,DS1*%
X58997600Y30230200D03*
D25*
X61537600Y30230200D03*
X64077600Y30230200D03*
X66617600Y30230200D03*
X69157600Y30230200D03*
X71697600Y30230200D03*
X74237600Y30230200D03*
X74237600Y45470200D03*
X71697600Y45470200D03*
X69157600Y45470200D03*
X66617600Y45470200D03*
X64077600Y45470200D03*
X61537600Y45470200D03*
X58997600Y45470200D03*
%TD*%
D16*
%TO.C,R12*%
X15196200Y51902400D03*
X16896200Y51902400D03*
%TD*%
%TO.C,C6*%
X95688800Y51242000D03*
X97388800Y51242000D03*
%TD*%
D14*
%TO.C,C4*%
X97808800Y76604800D03*
X97808800Y78304800D03*
%TD*%
%TO.C,R3*%
X94837000Y81608600D03*
X94837000Y83308600D03*
%TD*%
D21*
%TO.C,U3*%
X79988000Y62072400D03*
D22*
X82528000Y62072400D03*
X85068000Y62072400D03*
X87608000Y62072400D03*
X90148000Y62072400D03*
X92688000Y62072400D03*
X95228000Y62072400D03*
X97768000Y62072400D03*
X100308000Y62072400D03*
X102848000Y62072400D03*
X105388000Y62072400D03*
X107928000Y62072400D03*
X110468000Y62072400D03*
X113008000Y62072400D03*
X113008000Y69692400D03*
X110468000Y69692400D03*
X107928000Y69692400D03*
X105388000Y69692400D03*
X102848000Y69692400D03*
X100308000Y69692400D03*
X97768000Y69692400D03*
X95228000Y69692400D03*
X92688000Y69692400D03*
X90148000Y69692400D03*
X87608000Y69692400D03*
X85068000Y69692400D03*
X82528000Y69692400D03*
X79988000Y69692400D03*
%TD*%
D13*
%TO.C,H1*%
X4932600Y85476000D03*
%TD*%
D16*
%TO.C,C9*%
X13086200Y49362400D03*
X11386200Y49362400D03*
%TD*%
D26*
%TO.C,D1*%
X102482400Y78396900D03*
X102482400Y80271900D03*
%TD*%
D23*
%TO.C,SW4*%
X94239600Y22427800D03*
X86239600Y22427800D03*
X94239600Y17927800D03*
X86239600Y17927800D03*
%TD*%
D16*
%TO.C,C1*%
X124924200Y64424600D03*
X126624200Y64424600D03*
%TD*%
D27*
%TO.C,U1*%
X127349800Y31969400D03*
D28*
X121049800Y34249400D03*
D27*
X127349800Y36529400D03*
%TD*%
D14*
%TO.C,R1*%
X102482400Y81888000D03*
X102482400Y83588000D03*
%TD*%
D29*
%TO.C,R2*%
X94733200Y76134000D03*
X91333200Y76134000D03*
%TD*%
D14*
%TO.C,R11*%
X79876400Y57300800D03*
X79876400Y59000800D03*
%TD*%
D21*
%TO.C,U4*%
X27466200Y36657400D03*
D22*
X27466200Y39197400D03*
X27466200Y41737400D03*
X27466200Y44277400D03*
X27466200Y46817400D03*
X27466200Y49357400D03*
X27466200Y51897400D03*
X27466200Y54437400D03*
X27466200Y56977400D03*
X27466200Y59517400D03*
X27466200Y62057400D03*
X27466200Y64597400D03*
X19846200Y64597400D03*
X19846200Y62057400D03*
X19846200Y59517400D03*
X19846200Y56977400D03*
X19846200Y54437400D03*
X19846200Y51897400D03*
X19846200Y49357400D03*
X19846200Y46817400D03*
X19846200Y44277400D03*
X19846200Y41737400D03*
X19846200Y39197400D03*
X19846200Y36657400D03*
%TD*%
D14*
%TO.C,C3*%
X127366200Y40093200D03*
X127366200Y41793200D03*
%TD*%
D16*
%TO.C,C7*%
X105848800Y51242000D03*
X107548800Y51242000D03*
%TD*%
D15*
%TO.C,TP7*%
X25139400Y77785000D03*
%TD*%
%TO.C,TP6*%
X16529400Y64678600D03*
%TD*%
D23*
%TO.C,SW1*%
X120808000Y77012400D03*
X112808000Y77012400D03*
X120808000Y72512400D03*
X112808000Y72512400D03*
%TD*%
D15*
%TO.C,TP2*%
X58999000Y72457000D03*
%TD*%
%TO.C,TP8*%
X109492800Y11516400D03*
%TD*%
D30*
%TO.C,BT1*%
X37591286Y20070183D03*
D31*
X17101286Y20070183D03*
%TD*%
D32*
%TO.C,J1*%
X119899800Y23652400D03*
D33*
X125199800Y21352400D03*
X122699800Y17652400D03*
%TD*%
M02*
