M48
; DRILL file {KiCad (6.0.5-0)} date Sunday, July 24, 2022 at 09:09:58 PM
; FORMAT={-:-/ absolute / inch / decimal}
; #@! TF.CreationDate,2022-07-24T21:09:58-05:00
; #@! TF.GenerationSoftware,Kicad,Pcbnew,(6.0.5-0)
; #@! TF.FileFunction,MixedPlating,1,2
FMAT,2
INCH
; #@! TA.AperFunction,Plated,PTH,ViaDrill
T1C0.0160
; #@! TA.AperFunction,Plated,PTH,ComponentDrill
T2C0.0315
; #@! TA.AperFunction,Plated,PTH,ComponentDrill
T3C0.0354
; #@! TA.AperFunction,Plated,PTH,ComponentDrill
T4C0.0394
; #@! TA.AperFunction,Plated,PTH,ComponentDrill
T5C0.0591
; #@! TA.AperFunction,NonPlated,NPTH,ComponentDrill
T6C0.1260
%
G90
G05
T1
X0.3817Y1.9444
X0.6007Y1.8624
X0.9327Y2.3094
X0.9487Y1.3024
X1.0807Y1.2264
X1.2037Y1.7884
X1.3307Y1.1564
X1.4907Y2.9534
X1.5427Y1.4964
X1.5877Y2.7044
X1.8357Y2.1354
X2.0237Y1.8284
X2.0987Y1.4754
X2.1077Y1.5454
X2.1217Y1.6374
X2.1957Y0.9574
X2.4297Y2.3124
X2.5047Y0.9744
X2.5117Y0.8184
X2.5307Y2.3544
X2.6227Y2.4354
X2.7247Y1.9564
X2.7937Y0.8204
X2.8247Y1.9524
X3.1047Y0.9634
X3.1107Y0.8234
X3.3927Y0.8194
X3.5027Y2.1274
X3.5087Y1.9074
X3.5507Y2.1904
X3.5507Y1.5184
X3.6753Y2.0994
X3.7077Y1.5224
X3.7117Y0.8204
X3.7137Y0.9684
X3.7357Y3.3654
X3.7497Y2.6104
X3.7777Y1.9514
X3.8507Y3.1534
X3.9447Y3.1524
X4.0357Y3.3639
X4.1747Y1.9514
X4.3067Y3.0144
X4.3247Y1.9074
X4.4407Y3.1124
X4.5737Y1.3464
X4.7567Y3.1164
X4.7797Y2.7084
X4.7817Y1.0894
X4.8617Y2.7284
X4.9257Y1.6494
X5.2987Y2.9374
X5.3017Y3.0374
T2
X0.7813Y2.5432
X0.7813Y2.4432
X0.7813Y2.3432
X0.7813Y2.2432
X0.7813Y2.1432
X0.7813Y2.0432
X0.7813Y1.9432
X0.7813Y1.8432
X0.7813Y1.7432
X0.7813Y1.6432
X0.7813Y1.5432
X0.7813Y1.4432
X1.0813Y2.5432
X1.0813Y2.4432
X1.0813Y2.3432
X1.0813Y2.2432
X1.0813Y2.1432
X1.0813Y2.0432
X1.0813Y1.9432
X1.0813Y1.8432
X1.0813Y1.7432
X1.0813Y1.6432
X1.0813Y1.5432
X1.0813Y1.4432
X1.9041Y3.156
X1.9041Y3.056
X1.9041Y2.956
X1.9041Y2.856
X2.2041Y3.156
X2.2041Y3.056
X2.2041Y2.956
X2.2041Y2.856
X3.1491Y2.7438
X3.1491Y2.4438
X3.2491Y2.7438
X3.2491Y2.4438
X3.3491Y2.7438
X3.3491Y2.4438
X3.4491Y2.7438
X3.4491Y2.4438
X3.5491Y2.7438
X3.5491Y2.4438
X3.5958Y2.9974
X3.6491Y2.7438
X3.6491Y2.4438
X3.7297Y2.9974
X3.7491Y2.7438
X3.7491Y2.4438
X3.8491Y2.7438
X3.8491Y2.4438
X3.9491Y2.7438
X3.9491Y2.4438
X4.0491Y2.7438
X4.0491Y2.4438
X4.1491Y2.7438
X4.1491Y2.4438
X4.2491Y2.7438
X4.2491Y2.4438
X4.3491Y2.7438
X4.3491Y2.4438
X4.4491Y2.7438
X4.4491Y2.4438
T3
X2.3227Y1.7902
X2.3227Y1.1902
X2.4227Y1.7902
X2.4227Y1.1902
X2.5227Y1.7902
X2.5227Y1.1902
X2.6227Y1.7902
X2.6227Y1.1902
X2.7227Y1.7902
X2.7227Y1.1902
X2.8227Y1.7902
X2.8227Y1.1902
X2.9227Y1.7902
X2.9227Y1.1902
T4
X0.6508Y2.5464
X0.9897Y3.0624
X1.1978Y1.4454
X1.1998Y2.5434
X2.3228Y2.8526
X2.4638Y2.9496
X4.2055Y3.3298
X4.2055Y3.2298
X4.2055Y3.1298
X4.3055Y3.3298
X4.3055Y3.2298
X4.3055Y3.1298
X4.3107Y0.4534
X5.1867Y1.4344
X5.1917Y3.0364
X5.1917Y2.9364
X5.1917Y2.8364
X5.1917Y2.7364
X5.1917Y2.6364
X5.1917Y2.5364
T5
X0.6733Y0.7902
X1.48Y0.7902
T6
X0.1942Y3.3652
X0.1942Y0.2156
X5.3123Y3.3652
X5.3123Y0.2156
T4
G00X4.7697Y0.9312
M15
G01X4.6713Y0.9312
M16
G05
G00X4.8307Y0.7343
M15
G01X4.8307Y0.6556
M16
G05
G00X4.9291Y0.88
M15
G01X4.9291Y0.8013
M16
G05
T0
M30
